<svg class="animated" id="freepik_stories-graduation" xmlns="http://www.w3.org/2000/svg" viewBox="0 0 500 500" version="1.1" xmlns:xlink="http://www.w3.org/1999/xlink" xmlns:svgjs="http://svgjs.com/svgjs"><style>svg#freepik_stories-graduation:not(.animated) .animable {opacity: 0;}svg#freepik_stories-graduation.animated #freepik--background-complete--inject-2 {animation: 1s 1 forwards cubic-bezier(.36,-0.01,.5,1.38) slideLeft;animation-delay: 0s;}svg#freepik_stories-graduation.animated #freepik--Shadow--inject-2 {animation: 1s 1 forwards cubic-bezier(.36,-0.01,.5,1.38) lightSpeedLeft;animation-delay: 0s;}svg#freepik_stories-graduation.animated #freepik--Hats--inject-2 {animation: 1s 1 forwards cubic-bezier(.36,-0.01,.5,1.38) slideUp,1.5s Infinite  linear wind;animation-delay: 0s,1s;}svg#freepik_stories-graduation.animated #freepik--Character--inject-2 {animation: 1s 1 forwards linear slideDown,1.5s Infinite  linear floating;animation-delay: 0s,1s;}            @keyframes slideLeft {                0% {                    opacity: 0;                    transform: translateX(-30px);                }                100% {                    opacity: 1;                    transform: translateX(0);                }            }                    @keyframes lightSpeedLeft {              from {                transform: translate3d(-50%, 0, 0) skewX(20deg);                opacity: 0;              }              60% {                transform: skewX(-10deg);                opacity: 1;              }              80% {                transform: skewX(2deg);              }              to {                opacity: 1;                transform: translate3d(0, 0, 0);              }            }                    @keyframes slideUp {                0% {                    opacity: 0;                    transform: translateY(30px);                }                100% {                    opacity: 1;                    transform: inherit;                }            }                    @keyframes wind {                0% {                    transform: rotate( 0deg );                }                25% {                    transform: rotate( 1deg );                }                75% {                    transform: rotate( -1deg );                }            }                    @keyframes slideDown {                0% {                    opacity: 0;                    transform: translateY(-30px);                }                100% {                    opacity: 1;                    transform: translateY(0);                }            }                    @keyframes floating {                0% {                    opacity: 1;                    transform: translateY(0px);                }                50% {                    transform: translateY(-10px);                }                100% {                    opacity: 1;                    transform: translateY(0px);                }            }        </style><g id="freepik--background-complete--inject-2" class="animable" style="transform-origin: 250px 227.22px;"><rect y="382.4" width="500" height="0.25" style="fill: rgb(235, 235, 235); transform-origin: 250px 382.525px;" id="els77m8r6nw1" class="animable"></rect><rect x="355.33" y="389.91" width="33.12" height="0.25" style="fill: rgb(235, 235, 235); transform-origin: 371.89px 390.035px;" id="elkearyxq73oh" class="animable"></rect><rect x="257.97" y="398.37" width="44.03" height="0.25" style="fill: rgb(235, 235, 235); transform-origin: 279.985px 398.495px;" id="el7yijvszd3qi" class="animable"></rect><rect x="389.46" y="399.19" width="44.78" height="0.25" style="fill: rgb(235, 235, 235); transform-origin: 411.85px 399.315px;" id="elzacqksg3x5l" class="animable"></rect><rect x="53.69" y="389.66" width="43.19" height="0.25" style="fill: rgb(235, 235, 235); transform-origin: 75.285px 389.785px;" id="eldua3oc3knip" class="animable"></rect><rect x="105.79" y="389.66" width="6.33" height="0.25" style="fill: rgb(235, 235, 235); transform-origin: 108.955px 389.785px;" id="elvorll3pdusd" class="animable"></rect><rect x="132.7" y="393.88" width="93.68" height="0.25" style="fill: rgb(235, 235, 235); transform-origin: 179.54px 394.005px;" id="el8rope8lmlb" class="animable"></rect><path d="M237,337.8H43.91a5.71,5.71,0,0,1-5.7-5.71V60.66A5.71,5.71,0,0,1,43.91,55H237a5.71,5.71,0,0,1,5.71,5.71V332.09A5.71,5.71,0,0,1,237,337.8ZM43.91,55.2a5.46,5.46,0,0,0-5.45,5.46V332.09a5.46,5.46,0,0,0,5.45,5.46H237a5.47,5.47,0,0,0,5.46-5.46V60.66A5.47,5.47,0,0,0,237,55.2Z" style="fill: rgb(235, 235, 235); transform-origin: 140.46px 196.4px;" id="elq6as9jl86" class="animable"></path><path d="M453.31,337.8H260.21a5.72,5.72,0,0,1-5.71-5.71V60.66A5.72,5.72,0,0,1,260.21,55h193.1A5.71,5.71,0,0,1,459,60.66V332.09A5.71,5.71,0,0,1,453.31,337.8ZM260.21,55.2a5.47,5.47,0,0,0-5.46,5.46V332.09a5.47,5.47,0,0,0,5.46,5.46h193.1a5.47,5.47,0,0,0,5.46-5.46V60.66a5.47,5.47,0,0,0-5.46-5.46Z" style="fill: rgb(235, 235, 235); transform-origin: 356.75px 196.4px;" id="el2wa5cf4g01y" class="animable"></path><path d="M207.15,284.93H86.26V113.82c0-13.63,120.89-13.63,120.89,0Z" style="fill: rgb(224, 224, 224); transform-origin: 146.705px 194.264px;" id="elnihc4t711r" class="animable"></path><path d="M204.37,284.93H83.49V113.82c0-13.63,120.89-13.63,120.88,0Z" style="fill: rgb(235, 235, 235); transform-origin: 143.93px 194.264px;" id="elqett24bag3q" class="animable"></path><path d="M89.49,276.34V117.2a2.58,2.58,0,0,1,1.71-2.44c6.71-2.42,25-5.16,52.73-5.16s46,2.74,52.73,5.16a2.58,2.58,0,0,1,1.71,2.44V276.34a2.58,2.58,0,0,1-2.58,2.59H92.07A2.58,2.58,0,0,1,89.49,276.34Z" style="fill: rgb(250, 250, 250); transform-origin: 143.93px 194.265px;" id="elyfutiiczqv" class="animable"></path><path d="M115,110.75,96.19,278.93h27.53l19-169.33C132,109.63,122.74,110.08,115,110.75Z" style="fill: rgb(255, 255, 255); transform-origin: 119.455px 194.265px;" id="elafijpdy4fim" class="animable"></path><path d="M150.64,109.66l-19,169.27h15.21l18.92-168.7C161.18,110,156.12,109.75,150.64,109.66Z" style="fill: rgb(255, 255, 255); transform-origin: 148.705px 194.295px;" id="el2zb3l8lyn7u" class="animable"></path><g id="elob8n5jgicw"><rect x="77.5" y="191.45" width="174.14" height="5.28" style="fill: rgb(235, 235, 235); transform-origin: 164.57px 194.09px; transform: rotate(90deg);" class="animable"></rect></g><g id="elawf5040vppd"><rect x="34.98" y="191.45" width="174.14" height="5.28" style="fill: rgb(235, 235, 235); transform-origin: 122.05px 194.09px; transform: rotate(90deg);" class="animable"></rect></g><g id="elg2f7m0ml6r"><rect x="38.1" y="193.61" width="174.14" height="0.95" style="fill: rgb(224, 224, 224); transform-origin: 125.17px 194.085px; transform: rotate(90deg);" class="animable"></rect></g><g id="el2v4yld7pcvg"><rect x="80.62" y="193.61" width="174.14" height="0.95" style="fill: rgb(224, 224, 224); transform-origin: 167.69px 194.085px; transform: rotate(90deg);" class="animable"></rect></g><rect x="86.31" y="145.38" width="114" height="5.28" style="fill: rgb(235, 235, 235); transform-origin: 143.31px 148.02px;" id="el5v411thyei" class="animable"></rect><rect x="77.98" y="283.32" width="123.33" height="5.83" style="fill: rgb(245, 245, 245); transform-origin: 139.645px 286.235px;" id="elolvgf6lhtc" class="animable"></rect><g id="elp9sxbrrt8x"><rect x="201.31" y="283.32" width="5.84" height="5.83" style="fill: rgb(224, 224, 224); transform-origin: 204.23px 286.235px; transform: rotate(180deg);" class="animable"></rect></g><path d="M422,284.93H301.13V113.82c0-13.63,120.89-13.63,120.89,0Z" style="fill: rgb(224, 224, 224); transform-origin: 361.575px 194.264px;" id="el824c3sni8xm" class="animable"></path><path d="M419.24,284.93H298.36V113.82c0-13.63,120.88-13.63,120.88,0Z" style="fill: rgb(235, 235, 235); transform-origin: 358.8px 194.264px;" id="el8tne9ba6wm8" class="animable"></path><path d="M304.36,276.34V117.2a2.58,2.58,0,0,1,1.71-2.44c6.71-2.42,25-5.16,52.73-5.16s46,2.74,52.73,5.16a2.58,2.58,0,0,1,1.71,2.44V276.34a2.58,2.58,0,0,1-2.58,2.59H306.94A2.58,2.58,0,0,1,304.36,276.34Z" style="fill: rgb(250, 250, 250); transform-origin: 358.8px 194.265px;" id="elekkpv1hgs3" class="animable"></path><path d="M329.91,110.75,311.06,278.93h27.53l19-169.33C346.87,109.63,337.61,110.08,329.91,110.75Z" style="fill: rgb(255, 255, 255); transform-origin: 334.325px 194.265px;" id="el0hh0lzq74l3s" class="animable"></path><path d="M365.51,109.66l-19,169.27h15.21l18.92-168.7C376.05,110,371,109.75,365.51,109.66Z" style="fill: rgb(255, 255, 255); transform-origin: 363.575px 194.295px;" id="el1fq1hpsqro9" class="animable"></path><g id="elc7tgyxaenmb"><rect x="292.37" y="191.45" width="174.14" height="5.28" style="fill: rgb(235, 235, 235); transform-origin: 379.44px 194.09px; transform: rotate(90deg);" class="animable"></rect></g><g id="eltvejnlhhayp"><rect x="249.85" y="191.45" width="174.14" height="5.28" style="fill: rgb(235, 235, 235); transform-origin: 336.92px 194.09px; transform: rotate(90deg);" class="animable"></rect></g><g id="el59vlvp7p1yv"><rect x="252.97" y="193.61" width="174.14" height="0.95" style="fill: rgb(224, 224, 224); transform-origin: 340.04px 194.085px; transform: rotate(90deg);" class="animable"></rect></g><g id="elabw159af7ha"><rect x="295.49" y="193.61" width="174.14" height="0.95" style="fill: rgb(224, 224, 224); transform-origin: 382.56px 194.085px; transform: rotate(90deg);" class="animable"></rect></g><rect x="301.18" y="145.38" width="114" height="5.28" style="fill: rgb(235, 235, 235); transform-origin: 358.18px 148.02px;" id="elhp3gviblm8" class="animable"></rect><rect x="292.85" y="283.32" width="123.33" height="5.83" style="fill: rgb(245, 245, 245); transform-origin: 354.515px 286.235px;" id="el8b8vfgeoeh3" class="animable"></rect><g id="el54nvlrorzrx"><rect x="416.18" y="283.32" width="5.84" height="5.83" style="fill: rgb(224, 224, 224); transform-origin: 419.1px 286.235px; transform: rotate(180deg);" class="animable"></rect></g><rect x="56.11" y="77.22" width="30.15" height="8.52" style="fill: rgb(240, 240, 240); transform-origin: 71.185px 81.48px;" id="elfpasehy3mwe" class="animable"></rect><rect x="71.19" y="85.74" width="30.15" height="8.52" style="fill: rgb(230, 230, 230); transform-origin: 86.265px 90px;" id="el123dqqg2ylx" class="animable"></rect><rect x="258.63" y="196.38" width="30.15" height="8.52" style="fill: rgb(245, 245, 245); transform-origin: 273.705px 200.64px;" id="eloclrpmnjj6" class="animable"></rect><rect x="302" y="312.86" width="30.15" height="8.52" style="fill: rgb(245, 245, 245); transform-origin: 317.075px 317.12px;" id="elxgnuqtwfo5" class="animable"></rect><g id="elf8p3hbjsmj7"><rect x="89.49" y="315.53" width="30.15" height="8.52" style="fill: rgb(230, 230, 230); transform-origin: 104.565px 319.79px; transform: rotate(180deg);" class="animable"></rect></g><rect x="179.02" y="68.7" width="30.15" height="8.52" style="fill: rgb(240, 240, 240); transform-origin: 194.095px 72.96px;" id="elzu6gshz6ut" class="animable"></rect><rect x="185.24" y="307.01" width="30.15" height="8.52" style="fill: rgb(245, 245, 245); transform-origin: 200.315px 311.27px;" id="elyfr0npdvtsh" class="animable"></rect><rect x="406.95" y="302.75" width="30.15" height="8.52" style="fill: rgb(245, 245, 245); transform-origin: 422.025px 307.01px;" id="elgpvc9ofkj15" class="animable"></rect><rect x="170.16" y="315.53" width="30.15" height="8.52" style="fill: rgb(240, 240, 240); transform-origin: 185.235px 319.79px;" id="el7vhv4x5vt0c" class="animable"></rect><g id="elu7f00yaa1q8"><rect x="292.85" y="85.74" width="30.15" height="8.52" style="fill: rgb(240, 240, 240); transform-origin: 307.925px 90px; transform: rotate(180deg);" class="animable"></rect></g><path d="M426.75,90.11a13.47,13.47,0,1,0,0-26.94h-1.62V90.11Z" style="fill: rgb(224, 224, 224); transform-origin: 432.675px 76.64px;" id="elq0nz7xidv3" class="animable"></path><circle cx="425.13" cy="76.64" r="13.47" style="fill: rgb(235, 235, 235); transform-origin: 425.13px 76.64px;" id="el3ox7zlm4c5c" class="animable"></circle><g id="eltai231y0hym"><path d="M422.39,73.38c-2.34,2.93-5.49,4.31-7,3.09s-.87-4.6,1.47-7.53,5.49-4.31,7-3.09S424.73,70.44,422.39,73.38Z" style="fill: rgb(245, 245, 245); opacity: 0.6; transform-origin: 419.625px 71.16px;" class="animable"></path></g><circle cx="425.13" cy="76.64" r="1.89" style="fill: rgb(224, 224, 224); transform-origin: 425.13px 76.64px;" id="elwptk2xpl9wk" class="animable"></circle><path d="M432.26,100H421.77a4,4,0,0,1-4-4h0a4,4,0,0,1,4-4h10.49a4,4,0,0,1,4,4h0A4,4,0,0,1,432.26,100Z" style="fill: rgb(224, 224, 224); transform-origin: 427.015px 96px;" id="ell78usljyu7k" class="animable"></path><path d="M430.37,100H419.88a4,4,0,0,1-4-4h0a4,4,0,0,1,4-4h10.49a4,4,0,0,1,4,4h0A4,4,0,0,1,430.37,100Z" style="fill: rgb(245, 245, 245); transform-origin: 425.125px 96px;" id="el7x5jh09qb02" class="animable"></path><path d="M435.36,95.31,435,94.25a6.14,6.14,0,0,0,4-7.71l1.06-.33A7.26,7.26,0,0,1,435.36,95.31Z" style="fill: rgb(224, 224, 224); transform-origin: 437.699px 90.76px;" id="ell16sumg42ah" class="animable"></path><path d="M440.09,88h0a1.08,1.08,0,0,1-1.34-.7l-.38-1.2a1.08,1.08,0,0,1,.7-1.34h0a1.06,1.06,0,0,1,1.34.7l.38,1.2A1.07,1.07,0,0,1,440.09,88Z" style="fill: rgb(224, 224, 224); transform-origin: 439.581px 86.3775px;" id="el1xppmm8xejh" class="animable"></path></g><g id="freepik--Shadow--inject-2" class="animable" style="transform-origin: 250px 416.24px;"><ellipse id="freepik--path--inject-2" cx="250" cy="416.24" rx="193.89" ry="11.32" style="fill: rgb(245, 245, 245); transform-origin: 250px 416.24px;" class="animable"></ellipse></g><g id="freepik--Hats--inject-2" class="animable animator-active" style="transform-origin: 250.755px 156.78px;"><path d="M104.67,103.88a.53.53,0,0,1-.48-.3c-.86-1.79.18-3.2,1.27-4.7,1.57-2.15,3.52-4.82,1.46-10-3.64-9.28-.73-14.68-.6-14.9a.53.53,0,0,1,.92.52c0,.05-2.78,5.21.67,14,2.27,5.77,0,8.82-1.6,11-1.15,1.58-1.72,2.46-1.17,3.62a.53.53,0,0,1-.25.71A.59.59,0,0,1,104.67,103.88Z" style="fill: rgb(64, 123, 255); transform-origin: 106.37px 88.813px;" id="eli1pus2desif" class="animable"></path><path d="M106.81,75.68a1.49,1.49,0,1,1,1.48-1.48A1.49,1.49,0,0,1,106.81,75.68Zm0-1.91a.43.43,0,1,0,0,.85.43.43,0,0,0,0-.85Z" style="fill: rgb(64, 123, 255); transform-origin: 106.8px 74.19px;" id="elcusq412zqmg" class="animable"></path><polygon points="123.61 94.56 124.11 95.39 74.56 125.66 74.06 124.83 94.14 102.01 123.61 94.56" style="fill: rgb(38, 50, 56); transform-origin: 99.085px 110.11px;" id="elclsr15zq40g" class="animable"></polygon><polygon points="124.11 95.39 104.03 118.21 74.56 125.66 94.64 102.84 124.11 95.39" style="fill: rgb(64, 123, 255); transform-origin: 99.335px 110.525px;" id="elekv4hlb4xbo" class="animable"></polygon><path d="M120.43,113.05a125.11,125.11,0,0,0-28.86,17.63,1.14,1.14,0,0,1-1.7-.22l-5.3-8.68a1.13,1.13,0,0,1,.29-1.45,125.11,125.11,0,0,1,29.43-18,1.12,1.12,0,0,1,1.42.4l5.3,8.68A1.14,1.14,0,0,1,120.43,113.05Z" style="fill: rgb(64, 123, 255); transform-origin: 102.794px 116.593px;" id="elz43sqgia5h" class="animable"></path><g id="elgqf4ctw3z3r"><path d="M120.43,113.05a125.11,125.11,0,0,0-28.86,17.63,1.14,1.14,0,0,1-1.7-.22l-5.3-8.68a1.13,1.13,0,0,1,.29-1.45,125.11,125.11,0,0,1,29.43-18,1.12,1.12,0,0,1,1.42.4l5.3,8.68A1.14,1.14,0,0,1,120.43,113.05Z" style="fill: rgb(38, 50, 56); opacity: 0.3; transform-origin: 102.794px 116.593px;" class="animable"></path></g><path d="M398.39,200.34a.79.79,0,0,1-.6-.28c-1.86-2.2-1-4.58-.1-7.09,1.35-3.76,2.87-8-3.29-13.88-12.18-11.58-4.63-23-4.55-23.06a.8.8,0,0,1,1.1-.21.81.81,0,0,1,.21,1.11c-.29.41-6.85,10.38,4.33,21,6.92,6.57,5.05,11.77,3.69,15.57-.92,2.57-1.39,4.09-.18,5.52a.79.79,0,0,1-.1,1.12A.75.75,0,0,1,398.39,200.34Z" style="fill: rgb(64, 123, 255); transform-origin: 393.972px 178.013px;" id="elh9ady3n3hvo" class="animable"></path><path d="M390.54,158.69a2.22,2.22,0,1,1,2.15-2.78h0a2.23,2.23,0,0,1-1.59,2.71A2.2,2.2,0,0,1,390.54,158.69Zm0-2.86-.16,0a.59.59,0,0,0-.39.3.61.61,0,0,0-.07.48.64.64,0,0,0,.78.46.65.65,0,0,0,.46-.78h0a.65.65,0,0,0-.3-.39A.62.62,0,0,0,390.54,155.83Z" style="fill: rgb(64, 123, 255); transform-origin: 390.541px 156.47px;" id="el6zejbyvjtaa" class="animable"></path><polygon points="427.45 240.08 426.44 240.86 379.77 180.04 380.78 179.26 413.55 202.43 427.45 240.08" style="fill: rgb(38, 50, 56); transform-origin: 403.61px 210.06px;" id="eljuwajfy4tzp" class="animable"></polygon><polygon points="426.44 240.86 393.67 217.69 379.77 180.04 412.54 203.21 426.44 240.86" style="fill: rgb(64, 123, 255); transform-origin: 403.105px 210.45px;" id="elj3f52gto0nm" class="animable"></polygon><path d="M402.74,238.49a165.32,165.32,0,0,0-27.18-35.41,1.51,1.51,0,0,1,.05-2.27l10.65-8.17a1.49,1.49,0,0,1,1.94.17,165.23,165.23,0,0,1,27.72,36.12,1.49,1.49,0,0,1-.33,1.93L404.94,239A1.5,1.5,0,0,1,402.74,238.49Z" style="fill: rgb(64, 123, 255); transform-origin: 395.604px 215.821px;" id="eld2g7c5fe2cm" class="animable"></path><g id="elosvh8234rlg"><path d="M402.74,238.49a165.32,165.32,0,0,0-27.18-35.41,1.51,1.51,0,0,1,.05-2.27l10.65-8.17a1.49,1.49,0,0,1,1.94.17,165.23,165.23,0,0,1,27.72,36.12,1.49,1.49,0,0,1-.33,1.93L404.94,239A1.5,1.5,0,0,1,402.74,238.49Z" style="fill: rgb(38, 50, 56); opacity: 0.3; transform-origin: 395.604px 215.821px;" class="animable"></path></g><path d="M121.16,219.31a76.45,76.45,0,0,0,20,5.28.7.7,0,0,1,.62.84l-1.59,6a.69.69,0,0,1-.76.49A76.78,76.78,0,0,1,119,226.53a.68.68,0,0,1-.42-.8l1.59-6A.69.69,0,0,1,121.16,219.31Z" style="fill: rgb(64, 123, 255); transform-origin: 130.177px 225.577px;" id="elb5gx622ypou" class="animable"></path><polygon points="114.26 216.96 114.42 216.39 148.68 225.46 148.53 226.03 129.99 226.81 114.26 216.96" style="fill: rgb(38, 50, 56); transform-origin: 131.47px 221.6px;" id="el1dk6fq6uh1l" class="animable"></polygon><polygon points="114.42 216.39 132.95 215.61 148.68 225.46 130.14 226.24 114.42 216.39" style="fill: rgb(64, 123, 255); transform-origin: 131.55px 220.925px;" id="el5y4mhdi94d7" class="animable"></polygon><g id="elxoqw2dmr33"><g style="opacity: 0.4; transform-origin: 131.55px 220.925px;" class="animable"><polygon points="114.42 216.39 132.95 215.61 148.68 225.46 130.14 226.24 114.42 216.39" style="fill: rgb(38, 50, 56); transform-origin: 131.55px 220.925px;" id="elbhzs28nywup" class="animable"></polygon></g></g><path d="M132.5,221.2a.23.23,0,0,1-.14,0,.28.28,0,0,1-.1-.38c.34-.59.08-1.08-.47-2a5.36,5.36,0,0,1-.37-5.92c2.21-4.51,1-7.34,1-7.37a.28.28,0,0,1,.14-.37.27.27,0,0,1,.37.14c.06.12,1.37,3.1-.95,7.85a4.78,4.78,0,0,0,.34,5.37c.52.84,1,1.63.47,2.54A.27.27,0,0,1,132.5,221.2Z" style="fill: rgb(64, 123, 255); transform-origin: 132.027px 213.171px;" id="el9coaivuyp5v" class="animable"></path><path d="M132.61,206.2h-.06a.82.82,0,0,1-.54-.28.78.78,0,0,1-.18-.57.77.77,0,0,1,.27-.54.81.81,0,0,1,.58-.18.74.74,0,0,1,.53.27.79.79,0,0,1-.6,1.3Zm0-1a.19.19,0,0,0-.14.05.19.19,0,0,0-.08.15.23.23,0,0,0,.2.25.23.23,0,0,0,.25-.21.23.23,0,0,0-.21-.24Z" style="fill: rgb(64, 123, 255); transform-origin: 132.612px 205.414px;" id="elhlz8la7cz8m" class="animable"></path></g><g id="freepik--Character--inject-2" class="animable" style="transform-origin: 251.76px 263.275px;"><path d="M248.77,121.16c-7.23-2-11.28,9.38-13.22,18.9A13.58,13.58,0,0,1,225.14,151s25.47,16.57,44.45,7.41c15.28-7.38,10.4-24.83,3.52-32.86S253.18,114.25,248.77,121.16Z" style="fill: rgb(38, 50, 56); transform-origin: 252.404px 139.283px;" id="elwcgeacwkj3o" class="animable"></path><polygon points="262.86 407.32 254.22 408.17 245.23 387.61 253.87 386.77 262.86 407.32" style="fill: rgb(255, 139, 123); transform-origin: 254.045px 397.47px;" id="elqb6zd5kzq6i" class="animable"></polygon><polygon points="317.63 381.98 310.66 387.5 297.99 370.99 304.97 365.47 317.63 381.98" style="fill: rgb(255, 139, 123); transform-origin: 307.81px 376.485px;" id="elq8nvtlmwlte" class="animable"></polygon><path d="M307.92,384.34l5.59-8.34a.72.72,0,0,1,.91-.26l7.24,3.48a1.44,1.44,0,0,1,.52,2.08c-2,2.87-3.11,4.16-5.57,7.83-1.51,2.26-4.53,7.47-6.62,10.59s-5.28,1.21-4.69-.27c2.65-6.66,2.58-10.5,2.24-13.56A2.34,2.34,0,0,1,307.92,384.34Z" style="fill: rgb(38, 50, 56); transform-origin: 313.828px 388.536px;" id="elug1rw9440ip" class="animable"></path><path d="M253.07,405.5h10.61a.89.89,0,0,1,.84.65l2.3,8.39a1.32,1.32,0,0,1-1.29,1.68c-3.74,0-5.51,0-10.17,0H241.1c-3.88,0-4.69-3.91-3.08-4.27,7.19-1.59,11.33-3.79,13.55-5.88A2.17,2.17,0,0,1,253.07,405.5Z" style="fill: rgb(38, 50, 56); transform-origin: 252.055px 410.86px;" id="elk8x9h3935e" class="animable"></path><g id="elhzobcv0n0eg"><polygon points="245.24 387.62 249.87 398.21 258.88 398.21 253.88 386.77 245.24 387.62" style="opacity: 0.2; transform-origin: 252.06px 392.49px;" class="animable"></polygon></g><g id="elclagpxl2mvl"><polygon points="304.97 365.47 298 371 304.53 379.51 311.5 373.98 304.97 365.47" style="opacity: 0.2; transform-origin: 304.75px 372.49px;" class="animable"></polygon></g><path d="M237,223.33S220.24,276.27,225.19,315C228.5,340.93,246,395.14,246,395.14l15.43-.39s-12.5-55.07-13.79-76.57c-2.21-36.77,16-94.91,16-94.91Z" style="fill: rgb(64, 123, 255); transform-origin: 243.958px 309.205px;" id="el8jhea08kvjp" class="animable"></path><polygon points="243.79 395.94 262.86 395.46 261.75 389.6 242.43 389.6 243.79 395.94" style="fill: rgb(38, 50, 56); transform-origin: 252.645px 392.77px;" id="el2v5495ridsv" class="animable"></polygon><path d="M244.9,223.42s2.35,57.83,15.24,90.37c10.4,26.29,40.81,65,40.81,65l9.29-8.09s-19.3-40.94-27.2-58.48c-19.38-43,1.92-72.82-9.75-89Z" style="fill: rgb(64, 123, 255); transform-origin: 277.57px 301.005px;" id="elfobv5holwgr" class="animable"></path><polygon points="299.99 379.91 311.92 370.09 308.68 364.8 295.62 375.67 299.99 379.91" style="fill: rgb(38, 50, 56); transform-origin: 303.77px 372.355px;" id="elt0628d28r2" class="animable"></polygon><path d="M305.82,388.9a1.29,1.29,0,0,1-.75-.35.68.68,0,0,1-.25-.65c.19-1.11,3.14-2.38,3.47-2.52a.17.17,0,0,1,.19,0,.17.17,0,0,1,0,.19c-.42,1.11-1.27,3-2.36,3.27A1.06,1.06,0,0,1,305.82,388.9Zm2.22-3c-1,.47-2.76,1.41-2.87,2.09a.34.34,0,0,0,.14.32.79.79,0,0,0,.77.25C306.7,388.38,307.42,387.4,308,385.87Z" style="fill: rgb(64, 123, 255); transform-origin: 306.66px 387.125px;" id="elg3epi3x7qs" class="animable"></path><path d="M305.62,386.11a2,2,0,0,1-1.25-.42.71.71,0,0,1-.08-.88,1.08,1.08,0,0,1,.71-.57c1.24-.32,3.37,1.09,3.46,1.15a.21.21,0,0,1,.08.16.2.2,0,0,1-.1.15A6.35,6.35,0,0,1,305.62,386.11Zm-.05-1.56a1.5,1.5,0,0,0-.48,0,.72.72,0,0,0-.49.39c-.13.26-.06.39,0,.47.49.49,2.37.39,3.36.07A6.54,6.54,0,0,0,305.57,384.55Z" style="fill: rgb(64, 123, 255); transform-origin: 306.357px 385.162px;" id="elb7p4hj3us5d" class="animable"></path><path d="M248.37,407.22a3.51,3.51,0,0,1-2.05-.49,1.26,1.26,0,0,1-.52-1,.56.56,0,0,1,.25-.55c1-.66,4.81,1.12,5.25,1.33a.17.17,0,0,1,.1.18.18.18,0,0,1-.14.15A14.11,14.11,0,0,1,248.37,407.22Zm-1.7-1.83a.86.86,0,0,0-.43.09.24.24,0,0,0-.09.24.92.92,0,0,0,.38.73c.87.65,3,.38,4.13.16A13.46,13.46,0,0,0,246.67,405.39Z" style="fill: rgb(64, 123, 255); transform-origin: 248.598px 406.131px;" id="eldmgospccbrw" class="animable"></path><path d="M251.22,406.85h-.06c-1.16-.47-3.59-2.42-3.46-3.39,0-.2.17-.46.7-.53,2.07-.24,3,3.56,3,3.72a.18.18,0,0,1-.06.17A.16.16,0,0,1,251.22,406.85Zm-2.63-3.59h-.15c-.36.05-.38.18-.39.23-.08.62,1.65,2.2,2.91,2.86C250.7,405.47,249.92,403.26,248.59,403.26Z" style="fill: rgb(64, 123, 255); transform-origin: 249.549px 404.885px;" id="elypjsh03y3ik" class="animable"></path><polygon points="182.83 137.91 179.76 131.17 199.8 122.85 219.22 113.16 222.29 119.9 202.25 128.22 182.83 137.91" style="fill: rgb(64, 123, 255); transform-origin: 201.025px 125.535px;" id="el4lq4dzfiro" class="animable"></polygon><g id="ela8gk41l99z6"><polygon points="182.83 137.91 179.76 131.17 199.8 122.85 219.22 113.16 222.29 119.9 202.25 128.22 182.83 137.91" style="fill: rgb(250, 250, 250); opacity: 0.5; transform-origin: 201.025px 125.535px;" class="animable"></polygon></g><g id="eldzo0165kipu"><rect x="203.53" y="119.96" width="2.5" height="8.02" rx="1.13" style="fill: rgb(64, 123, 255); transform-origin: 204.78px 123.97px; transform: rotate(-17.01deg);" class="animable"></rect></g><g id="elr19k8f9fmra"><rect x="196.1" y="123.42" width="2.5" height="8.02" rx="1.13" style="fill: rgb(64, 123, 255); transform-origin: 197.35px 127.43px; transform: rotate(-35.38deg);" class="animable"></rect></g><path d="M203.5,134.55l2.12-7.7-9.19,1.72s.12,5.42,4.48,8.19Z" style="fill: rgb(255, 139, 123); transform-origin: 201.025px 131.805px;" id="elt9v8k3uof" class="animable"></path><polygon points="202.51 119.63 195.93 122.18 196.43 128.57 205.62 126.85 202.51 119.63" style="fill: rgb(255, 139, 123); transform-origin: 200.775px 124.1px;" id="eln7pt4rsxc8f" class="animable"></polygon><path d="M195.81,152c.23-8.2,3.58-19.61,3.58-19.61l4.65-.58a90.54,90.54,0,0,0-.47,17.52Z" style="fill: rgb(255, 139, 123); transform-origin: 199.925px 141.905px;" id="elzwuvwy7u5q" class="animable"></path><path d="M240.71,187.25c-.58.16-.92.24-1.37.35l-1.25.28-2.46.53c-1.63.34-3.26.67-4.92.93a87,87,0,0,1-10.21,1.18,41.66,41.66,0,0,1-11.47-.83,23.44,23.44,0,0,1-6.61-2.57c-.56-.32-1.13-.73-1.68-1.12l-.21-.15-.28-.23-.57-.48c-.33-.32-.67-.65-1-1a17.54,17.54,0,0,1-2.48-3.63,29.19,29.19,0,0,1-2.27-6c-.49-1.85-.81-3.6-1.09-5.31-.58-3.41-.84-6.69-1.11-9.92s-.39-6.42-.49-9.6l-.15-4.77-.07-2.4c0-.83-.05-1.57-.05-2.5l20,1.78c-.13.57-.27,1.33-.39,2l-.33,2.12c-.21,1.42-.36,2.85-.52,4.28-.27,2.85-.46,5.71-.49,8.51a67.1,67.1,0,0,0,.33,8.13,36,36,0,0,0,.6,3.58,13,13,0,0,0,.78,2.47c.11.21.18.27,0,.11s-.1-.11-.17-.16a.69.69,0,0,0-.13-.11l-.07-.06h0c.08,0,.11.09.21.14a6.09,6.09,0,0,0,1.81.65,22.19,22.19,0,0,0,6.56.14,47.81,47.81,0,0,0,7.69-1.5c1.29-.37,2.59-.76,3.87-1.22.64-.23,1.27-.47,1.9-.72l.91-.38c.27-.12.64-.28.78-.36Z" style="fill: rgb(38, 50, 56); transform-origin: 215.84px 165.311px;" id="elf5pr4jz3byq" class="animable"></path><g id="elhh1cnwke7sc"><g style="opacity: 0.2; transform-origin: 263.225px 342.99px;" class="animable"><path d="M231.63,345.71c1.41,5.48,2.91,11,4.39,16.27,4.36-1.21,10.56-3,17.44-5.25-1.17-6.08-2.3-12.29-3.26-18.11Z" id="elh9wnjltbpv" class="animable" style="transform-origin: 242.545px 350.3px;"></path><path d="M288.43,324l-19.57,7.46c3,5.28,6.29,10.62,9.6,15.71,6.4-2.92,12.18-6.08,16.36-9.4Z" id="elo6e0lwf842" class="animable" style="transform-origin: 281.84px 335.585px;"></path></g></g><path d="M231.44,174c.58,13.73-17.25,70.16-8.94,185.39,8.34,1.88,68.43-23.51,75.5-30.75-.61-13.81-25.95-103.35-19.69-154,.4-3.21-1.43-6.25-4.64-6.72-2.71-.4-6.09-.8-9.5-1a116,116,0,0,0-16.49,0c-4.12.39-8.64,1.16-11.7,1.73A5.36,5.36,0,0,0,231.44,174Z" style="fill: rgb(38, 50, 56); transform-origin: 259.144px 263.058px;" id="elml55olpl6er" class="animable"></path><path d="M262.49,148.45c-1,5.31-2,15,1.68,18.56,0,0-5.29,8.27-14.31,12.35-7.18-6.08-2.18-12.31-2.18-12.31,5.91-1.42,5.75-5.81,4.71-9.93Z" style="fill: rgb(255, 139, 123); transform-origin: 255.078px 163.905px;" id="elckbj17gq8jw" class="animable"></path><path d="M249.48,180.59l1.12-6.4,12.17-9.85,4.17,2.4S256,180.94,249.48,180.59Z" style="fill: rgb(230, 230, 230); transform-origin: 258.21px 172.468px;" id="elesg07akx0fa" class="animable"></path><path d="M249.48,180.59l1.12-6.4L249,166l-3.87.71S243,180.94,249.48,180.59Z" style="fill: rgb(230, 230, 230); transform-origin: 247.697px 173.298px;" id="eldjnfh4hj6kq" class="animable"></path><path d="M250.6,174.19s5.23,5.16,5.49,9.83c3.53-3.44,12-14.46,12.17-17.64-1.85-1.54-5.6-2.48-5.6-2.48Z" style="fill: rgb(255, 255, 255); transform-origin: 259.43px 173.96px;" id="elpg4fvdlfkaj" class="animable"></path><path d="M250.6,174.19s-5.08,4-5.35,8.71c-3.53-3.44-1.87-13.18-1.43-15.87,1.85-1.54,5.54-2,5.54-2Z" style="fill: rgb(255, 255, 255); transform-origin: 246.823px 173.965px;" id="elrzbi8ppmnw" class="animable"></path><g id="el1w6hcyzj2"><path d="M258.37,152l-6,5.12a17,17,0,0,1,.52,2.93c2.26-.33,5.66-2.37,5.89-4.73A9.3,9.3,0,0,0,258.37,152Z" style="opacity: 0.2; transform-origin: 255.583px 156.025px;" class="animable"></path></g><path d="M267.91,140.48c-3,8.37-4,12-9.58,15.11-8.34,4.73-18-.72-17.58-9.81.35-8.17,5.12-20.48,14.43-21.49A12.11,12.11,0,0,1,267.91,140.48Z" style="fill: rgb(255, 139, 123); transform-origin: 254.691px 140.773px;" id="elqvl7udv7z5r" class="animable"></path><path d="M264.41,130.74c-5.26,1.85-4.8,12.35.42,16S276.29,126.57,264.41,130.74Z" style="fill: rgb(38, 50, 56); transform-origin: 265.945px 138.685px;" id="ellhemjjyuk9a" class="animable"></path><path d="M249,127c5.3,4.65,12.91,6.45,15.58,5.1,1.94,1.51,8.4,4.57,4.55-2.72s-10.67-8.23-15.11-8.17S244.49,123,249,127Z" style="fill: rgb(38, 50, 56); transform-origin: 258.788px 127.624px;" id="elbioa8f0ky5g" class="animable"></path><path d="M267.94,148.36a7,7,0,0,1-4.29,3c-2.28.49-3.12-1.71-2.24-3.9.79-2,2.93-4.59,5.1-4.09S269.18,146.44,267.94,148.36Z" style="fill: rgb(255, 139, 123); transform-origin: 264.837px 147.368px;" id="eldc4jbz0vzl" class="animable"></path><path d="M254.31,139.17c-.2.69-.73,1.15-1.18,1s-.66-.79-.46-1.49.72-1.15,1.18-1S254.51,138.48,254.31,139.17Z" style="fill: rgb(38, 50, 56); transform-origin: 253.491px 138.925px;" id="elekuinzu3x4i" class="animable"></path><path d="M246.47,136.93c-.2.7-.73,1.16-1.18,1s-.66-.8-.46-1.49.72-1.15,1.18-1S246.67,136.24,246.47,136.93Z" style="fill: rgb(38, 50, 56); transform-origin: 245.651px 136.687px;" id="el6vho66tvy7m" class="animable"></path><path d="M246.2,135.54l-1.53-1S245.15,136.13,246.2,135.54Z" style="fill: rgb(38, 50, 56); transform-origin: 245.435px 135.106px;" id="elq9tfppl9sl" class="animable"></path><path d="M248.2,138.72a19.36,19.36,0,0,1-3.73,3.72,3.12,3.12,0,0,0,2.34,1.17Z" style="fill: rgb(255, 86, 82); transform-origin: 246.335px 141.165px;" id="ell8n54fejw7l" class="animable"></path><path d="M249.78,147.24a6.53,6.53,0,0,1-1.3-.24.17.17,0,0,1-.12-.22.17.17,0,0,1,.21-.12,5.77,5.77,0,0,0,5.13-.87.18.18,0,0,1,.25,0,.18.18,0,0,1,0,.25A5.86,5.86,0,0,1,249.78,147.24Z" style="fill: rgb(38, 50, 56); transform-origin: 251.176px 146.504px;" id="elud8fluoz8zm" class="animable"></path><path d="M258.59,135.1a.34.34,0,0,1-.28-.2,3.4,3.4,0,0,0-2.46-1.93.37.37,0,0,1-.31-.4.36.36,0,0,1,.39-.3,4.11,4.11,0,0,1,3,2.32.36.36,0,0,1-.16.47A.41.41,0,0,1,258.59,135.1Z" style="fill: rgb(38, 50, 56); transform-origin: 257.251px 133.684px;" id="elizx69hny79" class="animable"></path><path d="M243.73,132.55a.34.34,0,0,1-.29-.2.36.36,0,0,1,.17-.47,4.16,4.16,0,0,1,3.8.1.37.37,0,0,1,.11.49.36.36,0,0,1-.49.11,3.38,3.38,0,0,0-3.12-.06A.29.29,0,0,1,243.73,132.55Z" style="fill: rgb(38, 50, 56); transform-origin: 245.489px 132.051px;" id="elblgqtm7ggbf" class="animable"></path><path d="M312,172.44l1-7.92,7.81,5.12s-2.19,5-7.28,5.83Z" style="fill: rgb(255, 139, 123); transform-origin: 316.405px 169.995px;" id="el3eyb312pk4i" class="animable"></path><polygon points="318.66 159.05 323.76 163.93 320.83 169.64 313.02 164.52 318.66 159.05" style="fill: rgb(255, 139, 123); transform-origin: 318.39px 164.345px;" id="eldhyg8d9z51j" class="animable"></polygon><path d="M312.4,191.49c2.94-7.65,4.24-19.47,4.24-19.47l-4.07-2.32A90.88,90.88,0,0,1,306.26,186Z" style="fill: rgb(255, 139, 123); transform-origin: 311.45px 180.595px;" id="elu1j16ii4vpf" class="animable"></path><path d="M277.72,171.09c.53,1.12,1.21,2.46,1.87,3.68s1.37,2.47,2.08,3.69c1.43,2.44,2.94,4.82,4.52,7.1a76.81,76.81,0,0,0,4.93,6.44c.85,1,1.7,1.9,2.55,2.74a22.27,22.27,0,0,0,2.42,2.06,5,5,0,0,0,.51.34l.22.15c.07,0,0,0,0,0l-.08,0a3.42,3.42,0,0,0-1.25-.29,3.57,3.57,0,0,0-1.22.16c-.23.08-.23.1-.13,0a8,8,0,0,0,1.38-1.52,27.39,27.39,0,0,0,1.75-2.77,49,49,0,0,0,3-7.05c.46-1.26.83-2.56,1.21-3.86l.5-2c.08-.33.15-.66.21-1s.15-.68.16-.86L321.63,184c-.2.53-.35.86-.53,1.26l-.5,1.14-1,2.25c-.66,1.49-1.38,3-2.09,4.45a92.57,92.57,0,0,1-4.92,8.92,42.86,42.86,0,0,1-3.28,4.59,26.66,26.66,0,0,1-4.95,4.74,17.24,17.24,0,0,1-4,2.15,14.49,14.49,0,0,1-5.6.88,14.05,14.05,0,0,1-5.54-1.4l-.57-.29c-.18-.09-.4-.21-.49-.27l-.73-.44c-.5-.29-.93-.59-1.35-.89a52.48,52.48,0,0,1-8.08-7.33c-2.25-2.48-4.32-4.95-6.28-7.46s-3.83-5-5.66-7.57l-2.72-3.83L262,183c-.47-.67-.89-1.27-1.39-2Z" style="fill: rgb(38, 50, 56); transform-origin: 291.12px 192.741px;" id="elmnk4rctf0cm" class="animable"></path><path d="M254,137.78l-1.52-1S253,138.37,254,137.78Z" style="fill: rgb(38, 50, 56); transform-origin: 253.24px 137.346px;" id="el5psp3akbyqd" class="animable"></path><polygon points="290.34 124.46 290.18 125.09 233.86 110.96 234.02 110.33 263.65 111.53 290.34 124.46" style="fill: rgb(38, 50, 56); transform-origin: 262.1px 117.71px;" id="elrjas2h0owi" class="animable"></polygon><polygon points="290.18 125.09 260.55 123.89 233.86 110.96 263.49 112.17 290.18 125.09" style="fill: rgb(64, 123, 255); transform-origin: 262.02px 118.025px;" id="elqlavs7emuhp" class="animable"></polygon><path d="M276,131.8a154.4,154.4,0,0,0-32.8-8.23c-.7-.09-1.22-.64-1.09-1.16l2-8a1,1,0,0,1,1.19-.61,154.39,154.39,0,0,1,33.45,8.39,1,1,0,0,1,.75,1.1l-2,8A1.1,1.1,0,0,1,276,131.8Z" style="fill: rgb(64, 123, 255); transform-origin: 260.799px 122.845px;" id="elrww2mdwpmrk" class="animable"></path><g id="elquse4xdpeh"><path d="M276,131.8a154.4,154.4,0,0,0-32.8-8.23c-.7-.09-1.22-.64-1.09-1.16l2-8a1,1,0,0,1,1.19-.61,154.39,154.39,0,0,1,33.45,8.39,1,1,0,0,1,.75,1.1l-2,8A1.1,1.1,0,0,1,276,131.8Z" style="fill: rgb(38, 50, 56); opacity: 0.3; transform-origin: 260.799px 122.845px;" class="animable"></path></g><path d="M281,154.83a.54.54,0,0,1-.34-.12.54.54,0,0,1-.06-.75c4.9-5.77,2.18-8.38-1.59-12-2.16-2.08-4.62-4.44-5.86-7.78-3.43-9.21,7.05-15.29,7.15-15.35a.53.53,0,0,1,.72.2.52.52,0,0,1-.19.72c-.41.23-9.8,5.7-6.69,14.06,1.16,3.12,3.52,5.39,5.61,7.39,3.7,3.56,7.2,6.92,1.66,13.44A.53.53,0,0,1,281,154.83Z" style="fill: rgb(64, 123, 255); transform-origin: 278.378px 136.796px;" id="eljgf47ole4x" class="animable"></path><path d="M281,155.79a1.49,1.49,0,1,1,1.48-1.49A1.49,1.49,0,0,1,281,155.79Zm0-1.91a.43.43,0,1,0,.42.42A.42.42,0,0,0,281,153.88Z" style="fill: rgb(64, 123, 255); transform-origin: 280.99px 154.3px;" id="elzy21bg5owcj" class="animable"></path></g><defs>     <filter id="active" height="200%">         <feMorphology in="SourceAlpha" result="DILATED" operator="dilate" radius="2"></feMorphology>                <feFlood flood-color="#32DFEC" flood-opacity="1" result="PINK"></feFlood>        <feComposite in="PINK" in2="DILATED" operator="in" result="OUTLINE"></feComposite>        <feMerge>            <feMergeNode in="OUTLINE"></feMergeNode>            <feMergeNode in="SourceGraphic"></feMergeNode>        </feMerge>    </filter>    <filter id="hover" height="200%">        <feMorphology in="SourceAlpha" result="DILATED" operator="dilate" radius="2"></feMorphology>                <feFlood flood-color="#ff0000" flood-opacity="0.5" result="PINK"></feFlood>        <feComposite in="PINK" in2="DILATED" operator="in" result="OUTLINE"></feComposite>        <feMerge>            <feMergeNode in="OUTLINE"></feMergeNode>            <feMergeNode in="SourceGraphic"></feMergeNode>        </feMerge>            <feColorMatrix type="matrix" values="0   0   0   0   0                0   1   0   0   0                0   0   0   0   0                0   0   0   1   0 "></feColorMatrix>    </filter></defs></svg>