{
  "accessors": [
    {
      "bufferView": 2,
      "componentType": 5126,
      "count": 65532,
      "max": [
        7.09834098815918,
        30.666582107543945,
        32.90995407104492
      ],
      "min": [
        -13.481025695800781,
        4.646127700805664,
        4.718351364135742
      ],
      "type": "VEC3"
    },
    {
      "bufferView": 2,
      "byteOffset": 786384,
      "componentType": 5126,
      "count": 65532,
      "max": [
        0.9999781250953674,
        0.9999930262565613,
        1.0
      ],
      "min": [
        -0.9999970197677612,
        -0.9999074339866638,
        -0.9999919533729553
      ],
      "type": "VEC3"
    },
    {
      "bufferView": 1,
      "componentType": 5126,
      "count": 65532,
      "max": [
        0.9998778104782104,
        0.35876455903053284
      ],
      "min": [
        0.0,
        0.0
      ],
      "type": "VEC2"
    },
    {
      "bufferView": 0,
      "componentType": 5125,
      "count": 292956,
      "type": "SCALAR"
    },
    {
      "bufferView": 2,
      "byteOffset": 1572768,
      "componentType": 5126,
      "count": 65532,
      "max": [
        6.972797393798828,
        30.61409568786621,
        33.03334426879883
      ],
      "min": [
        -11.561700820922852,
        4.646127700805664,
        4.840031623840332
      ],
      "type": "VEC3"
    },
    {
      "bufferView": 2,
      "byteOffset": 2359152,
      "componentType": 5126,
      "count": 65532,
      "max": [
        0.9999633431434631,
        0.9999986886978149,
        0.9999949336051941
      ],
      "min": [
        -0.9999834299087524,
        -0.9999970197677612,
        -0.9998948574066162
      ],
      "type": "VEC3"
    },
    {
      "bufferView": 1,
      "byteOffset": 524256,
      "componentType": 5126,
      "count": 65532,
      "max": [
        0.9998778104782104,
        0.37097159028053284
      ],
      "min": [
        0.0001220703125,
        0.00012197031173855066
      ],
      "type": "VEC2"
    },
    {
      "bufferView": 0,
      "byteOffset": 1171824,
      "componentType": 5125,
      "count": 268923,
      "type": "SCALAR"
    },
    {
      "bufferView": 2,
      "byteOffset": 3145536,
      "componentType": 5126,
      "count": 51028,
      "max": [
        7.106933116912842,
        28.714765548706055,
        31.60907554626465
      ],
      "min": [
        -13.481025695800781,
        7.441822052001953,
        5.231141090393066
      ],
      "type": "VEC3"
    },
    {
      "bufferView": 2,
      "byteOffset": 3757872,
      "componentType": 5126,
      "count": 51028,
      "max": [
        0.9999781250953674,
        0.9998601078987122,
        0.999993085861206
      ],
      "min": [
        -0.9999642968177795,
        -0.9999970197677612,
        -0.9999919533729553
      ],
      "type": "VEC3"
    },
    {
      "bufferView": 1,
      "byteOffset": 1048512,
      "componentType": 5126,
      "count": 51028,
      "max": [
        0.9998778700828552,
        0.38317862153053284
      ],
      "min": [
        0.0001220703125,
        0.00012197031173855066
      ],
      "type": "VEC2"
    },
    {
      "bufferView": 0,
      "byteOffset": 2247516,
      "componentType": 5125,
      "count": 185433,
      "type": "SCALAR"
    }
  ],
  "asset": {
    "extras": {
      "author": "matousekfoto (https://sketchfab.com/matousekfoto)",
      "license": "CC-BY-4.0 (http://creativecommons.org/licenses/by/4.0/)",
      "source": "https://sketchfab.com/3d-models/il-commendatore-db78b94fc7b44e75856fcd7f82c5c2d3",
      "title": "Il Commendatore"
    },
    "generator": "Sketchfab-12.67.0",
    "version": "2.0"
  },
  "bufferViews": [
    {
      "buffer": 0,
      "byteLength": 2989248,
      "name": "floatBufferViews",
      "target": 34963
    },
    {
      "buffer": 0,
      "byteLength": 1456736,
      "byteOffset": 2989248,
      "byteStride": 8,
      "name": "floatBufferViews",
      "target": 34962
    },
    {
      "buffer": 0,
      "byteLength": 4370208,
      "byteOffset": 4445984,
      "byteStride": 12,
      "name": "floatBufferViews",
      "target": 34962
    }
  ],
  "buffers": [
    {
      "byteLength": 8816192,
      "uri": "scene.bin"
    }
  ],
  "extensionsRequired": [
    "KHR_materials_pbrSpecularGlossiness"
  ],
  "extensionsUsed": [
    "KHR_materials_pbrSpecularGlossiness"
  ],
  "images": [
    {
      "uri": "textures/Material_u1_v1_diffuse.png"
    }
  ],
  "materials": [
    {
      "doubleSided": true,
      "extensions": {
        "KHR_materials_pbrSpecularGlossiness": {
          "diffuseFactor": [
            1.0,
            1.0,
            1.0,
            1.0
          ],
          "diffuseTexture": {
            "index": 0
          },
          "glossinessFactor": 0.07714842293286245,
          "specularFactor": [
            0.0,
            0.0,
            0.0
          ]
        }
      },
      "name": "Material_u1_v1"
    }
  ],
  "meshes": [
    {
      "name": "meshNode_Material_u1_v1_0",
      "primitives": [
        {
          "attributes": {
            "NORMAL": 1,
            "POSITION": 0,
            "TEXCOORD_0": 2
          },
          "indices": 3,
          "material": 0,
          "mode": 4
        }
      ]
    },
    {
      "name": "meshNode_Material_u1_v1_0",
      "primitives": [
        {
          "attributes": {
            "NORMAL": 5,
            "POSITION": 4,
            "TEXCOORD_0": 6
          },
          "indices": 7,
          "material": 0,
          "mode": 4
        }
      ]
    },
    {
      "name": "meshNode_Material_u1_v1_0",
      "primitives": [
        {
          "attributes": {
            "NORMAL": 9,
            "POSITION": 8,
            "TEXCOORD_0": 10
          },
          "indices": 11,
          "material": 0,
          "mode": 4
        }
      ]
    }
  ],
  "nodes": [
    {
      "children": [
        1
      ],
      "matrix": [
        0.00035895645651869146,
        -1.587783346141842e-05,
        -0.00013721203587546346,
        0.0,
        -0.00013768817382577708,
        -1.0677245813694359e-05,
        -0.0003589665205337225,
        0.0,
        1.1009865522322191e-05,
        0.0003841391438613867,
        -1.564902613107374e-05,
        0.0,
        177.84963989257813,
        84.07424163818344,
        685.43994140625,
        1.0
      ],
      "name": "Sketchfab_model"
    },
    {
      "children": [
        2
      ],
      "matrix": [
        1.0,
        0.0,
        0.0,
        0.0,
        0.0,
        0.0,
        1.0,
        0.0,
        0.0,
        -1.0,
        0.0,
        0.0,
        0.0,
        0.0,
        0.0,
        1.0
      ],
      "name": "commedia.fbx"
    },
    {
      "children": [
        3
      ],
      "name": "RootNode"
    },
    {
      "children": [
        4,
        5,
        6
      ],
      "matrix": [
        1.9470718837233392e-05,
        5.551115123125783e-15,
        99.99999999999812,
        0.0,
        99.99999999999802,
        -4.371139006309477e-06,
        -1.9470718864988967e-05,
        0.0,
        4.371138995207247e-06,
        99.99999999999993,
        -8.881784197001252e-13,
        0.0,
        0.0,
        0.0,
        0.0,
        1.0
      ],
      "name": "meshNode"
    },
    {
      "mesh": 0,
      "name": "meshNode_Material_u1_v1_0"
    },
    {
      "mesh": 1,
      "name": "meshNode_Material_u1_v1_0"
    },
    {
      "mesh": 2,
      "name": "meshNode_Material_u1_v1_0"
    }
  ],
  "samplers": [
    {
      "magFilter": 9729,
      "minFilter": 9987,
      "wrapS": 10497,
      "wrapT": 10497
    }
  ],
  "scene": 0,
  "scenes": [
    {
      "name": "Sketchfab_Scene",
      "nodes": [
        0
      ]
    }
  ],
  "textures": [
    {
      "sampler": 0,
      "source": 0
    }
  ]
}
